<?xml version="1.0" encoding="UTF-8" standalone="no"?>
<svg   viewBox="0 0 1024 1024">
  <path
     d="M498.346667 512m-85.333334 0a85.333333 85.333333 0 1 0 170.666667 0 85.333333 85.333333 0 1 0-170.666667 0Z"
     fill="#560dcb"
     id="center"/>
  <path
     d="M955.733333 245.76c-13.653333-23.893333-44.373333-51.2-122.88-51.2-51.2 0-116.053333 13.653333-180.906666 34.133333-10.24-34.133333-17.066667-64.853333-30.72-92.16 17.066667-13.653333 27.306667-30.72 27.306666-54.613333 0-37.546667-30.72-68.266667-68.266666-68.266667-13.653333 0-30.72 6.826667-40.96 13.653334-13.653333-10.24-30.72-13.653333-44.373334-13.653334-68.266667 0-122.88 88.746667-157.013333 221.866667-54.613333-13.653333-105.813333-20.48-150.186667-20.48-75.093333 0-105.813333 27.306667-119.466666 47.786667-34.133333 58.026667 17.066667 153.6 119.466666 252.586666-10.24 13.653333-17.066667 23.893333-27.306666 30.72-68.266667 78.506667-88.746667 146.773333-61.44 194.56 6.826667 13.653333 20.48 23.893333 34.133333 30.72 0 13.653333 0 27.306667 6.826667 40.96 13.653333 20.48 34.133333 34.133333 58.026666 34.133334 10.24 0 23.893333-3.413333 34.133334-10.24 20.48-10.24 30.72-30.72 34.133333-51.2 20.48-3.413333 44.373333-6.826667 68.266667-13.653334 34.133333 139.946667 92.16 232.106667 160.426666 232.106667s122.88-88.746667 157.013334-221.866667c37.546667 10.24 71.68 17.066667 102.4 20.48 0 3.413333 0 6.826667 3.413333 10.24 3.413333 17.066667 17.066667 30.72 30.72 40.96 10.24 6.826667 20.48 10.24 34.133333 10.24 23.893333 0 47.786667-13.653333 58.026667-34.133333 6.826667-13.653333 10.24-27.306667 6.826667-40.96 13.653333-6.826667 27.306667-20.48 34.133333-30.72 34.133333-58.026667-10.24-146.773333-109.226667-242.346667 122.88-102.4 180.906667-204.8 143.36-269.653333z m-119.466666-13.653333c34.133333 0 75.093333 6.826667 92.16 34.133333 23.893333 44.373333-23.893333 133.12-133.12 228.693333-34.133333-30.72-71.68-58.026667-112.64-88.746666-3.413333-51.2-10.24-95.573333-20.48-139.946667 64.853333-23.893333 122.88-34.133333 174.08-34.133333z m-232.106667 395.946666c-37.546667 20.48-75.093333 40.96-109.226667 58.026667-23.893333-13.653333-47.786667-23.893333-75.093333-37.546667-27.306667-13.653333-51.2-30.72-75.093333-44.373333-3.413333-27.306667-3.413333-58.026667-3.413334-85.333333s0-58.026667 3.413334-81.92c34.133333-23.893333 68.266667-44.373333 105.813333-68.266667 13.653333-6.826667 30.72-17.066667 44.373333-23.893333 27.306667 13.653333 51.2 27.306667 78.506667 40.96 27.306667 13.653333 51.2 30.72 75.093333 44.373333 3.413333 27.306667 3.413333 58.026667 3.413334 85.333333 0 30.72 0 61.44-3.413334 88.746667-13.653333 6.826667-30.72 13.653333-44.373333 23.893333z m40.96 17.066667c-3.413333 34.133333-6.826667 68.266667-13.653333 98.986667-30.72-10.24-61.44-23.893333-95.573334-37.546667 30.72-13.653333 58.026667-30.72 88.746667-47.786667 3.413333-6.826667 10.24-10.24 20.48-13.653333z m-191.146667 58.026667c-30.72 13.653333-61.44 23.893333-88.746666 30.72-6.826667-27.306667-10.24-58.026667-13.653334-92.16 17.066667 10.24 34.133333 20.48 54.613334 30.72 13.653333 10.24 30.72 20.48 47.786666 30.72z m-143.36-129.706667c-27.306667-20.48-51.2-37.546667-71.68-58.026667 20.48-20.48 47.786667-40.96 71.68-61.44v119.466667z m37.546667-187.733333c3.413333-37.546667 10.24-71.68 13.653333-102.4 30.72 10.24 61.44 23.893333 92.16 37.546666-6.826667 3.413333-13.653333 6.826667-23.893333 13.653334-27.306667 13.653333-54.613333 30.72-81.92 51.2z m184.32-68.266667c30.72-17.066667 64.853333-30.72 95.573333-40.96 6.826667 34.133333 13.653333 68.266667 17.066667 105.813333-17.066667-10.24-34.133333-20.48-54.613333-30.72-20.48-13.653333-37.546667-23.893333-58.026667-34.133333z m150.186667 133.12c30.72 20.48 58.026667 44.373333 81.92 64.853333-23.893333 20.48-51.2 40.96-81.92 61.44 0-20.48 3.413333-44.373333 3.413333-64.853333 0-20.48-3.413333-40.96-3.413333-61.44zM498.346667 51.2c6.826667 0 13.653333 3.413333 23.893333 6.826667-3.413333 10.24-6.826667 17.066667-6.826667 27.306666V102.4c0 3.413333 3.413333 6.826667 3.413334 10.24v3.413333c3.413333 3.413333 3.413333 6.826667 6.826666 10.24 3.413333 3.413333 6.826667 6.826667 6.826667 10.24 3.413333 3.413333 6.826667 3.413333 10.24 6.826667h3.413333c3.413333 0 6.826667 3.413333 10.24 3.413333h3.413334c3.413333 0 6.826667 0 6.826666 3.413334h17.066667c10.24 27.306667 20.48 58.026667 30.72 88.746666-40.96 13.653333-81.92 34.133333-126.293333 54.613334-40.96-20.48-81.92-37.546667-122.88-51.2 37.546667-116.053333 85.333333-191.146667 133.12-191.146667zM98.986667 283.306667c17.066667-27.306667 58.026667-34.133333 92.16-34.133334 40.96 0 88.746667 10.24 143.36 23.893334-10.24 40.96-13.653333 88.746667-20.48 136.533333-37.546667 27.306667-71.68 54.613333-98.986667 81.92-98.986667-88.746667-139.946667-170.666667-116.053333-208.213333z m163.84 471.04c0-3.413333-3.413333-6.826667-3.413334-6.826667-3.413333-3.413333-6.826667-6.826667-10.24-13.653333l-6.826666-6.826667-3.413334-3.413333c-10.24-6.826667-23.893333-13.653333-40.96-13.653334h-6.826666-3.413334c-3.413333 0-6.826667 0-10.24 3.413334-3.413333 0-10.24 3.413333-13.653333 6.826666-10.24 3.413333-17.066667 10.24-20.48 20.48-6.826667-3.413333-13.653333-10.24-17.066667-17.066666-17.066667-30.72 3.413333-88.746667 58.026667-153.6 6.826667-10.24 17.066667-20.48 27.306667-27.306667 30.72 27.306667 61.44 51.2 98.986666 78.506667 3.413333 44.373333 10.24 85.333333 17.066667 122.88-20.48 3.413333-44.373333 10.24-64.853333 10.24z m235.52 218.453333c-47.786667 0-95.573333-78.506667-126.293334-204.8 37.546667-10.24 81.92-27.306667 122.88-44.373333 44.373333 20.48 88.746667 37.546667 129.706667 51.2-34.133333 122.88-81.92 197.973333-126.293333 197.973333z m395.946666-228.693333c-3.413333 6.826667-10.24 13.653333-17.066666 17.066666l-10.24-10.24c-3.413333-3.413333-6.826667-6.826667-10.24-6.826666-6.826667-3.413333-17.066667-6.826667-23.893334-6.826667H819.2h-3.413333c-17.066667 3.413333-34.133333 10.24-44.373334 20.48-3.413333 3.413333-6.826667 6.826667-6.826666 10.24 0 3.413333-3.413333 3.413333-3.413334 6.826667-30.72-3.413333-64.853333-10.24-98.986666-20.48 6.826667-40.96 13.653333-85.333333 17.066666-129.706667 40.96-27.306667 78.506667-54.613333 112.64-81.92 88.746667 81.92 126.293333 160.426667 102.4 201.386667z"
     id="orbits"
     style="fill: #b42b6f;"/>
</svg>
