<svg>
<path d="M-88 -67.2081L-69.6842 -85L-51.3684 -67.2081L-69.6842 -49.3134L-88 -67.2081ZM-54.7368 -34.8125C-51.4386 -27.4077 -48.8772 -19.5917 -47.0526 -11.3642C-45.1579 -3.20529 -44.2105 4.88506 -44.2105 12.9068C-44.2105 24.151 -46.5263 34.6411 -51.1579 44.3769C-55.7193 54.1127 -62.7368 62.5116 -72.2105 69.5735C-81.6842 76.6354 -93.7895 81.7776 -108.526 85L-120 62.2716C-102.947 58.1579 -90.386 52.0901 -82.3158 44.0684C-74.1754 36.1151 -70.1053 26.2765 -70.1053 14.5523C-70.1053 8.38173 -71.0175 1.69691 -72.8421 -5.50212C-74.5965 -12.7012 -76.8772 -19.5574 -79.6842 -26.0708L-54.7368 -34.8125Z" fill="#E05297"/>
<path d="M20.1053 27.4077C16.3158 28.2305 12.6316 28.6419 9.05263 28.6419C-3.7193 28.6419 -13.7544 25.7965 -21.0526 20.1059C-28.3509 14.3466 -32 5.67352 -32 -5.91349C-32 -11.3299 -31.2281 -16.7806 -29.6842 -22.2656C-28.1404 -27.7506 -25.7895 -32.7899 -22.6316 -37.3835C-19.4035 -42.0458 -15.3684 -45.7824 -10.5263 -48.5935C-5.61404 -51.4045 0.210523 -52.81 6.94736 -52.81C14.1754 -52.81 20.386 -51.0617 25.5789 -47.565C30.8421 -44.0684 35.1579 -39.3718 38.5263 -33.4755C41.8947 -27.6477 44.386 -21.1686 46 -14.0381C47.614 -6.90765 48.4211 0.257107 48.4211 7.45614C48.4211 28.4362 42.3158 45.4739 30.1053 58.5693C17.8947 71.6646 0.175434 80.3035 -23.0526 84.4858L-32.5263 60.8318C-18.6316 58.3636 -7.1579 54.2498 1.89473 48.4906C10.9474 42.7314 17.0175 35.7038 20.1053 27.4077ZM22.2105 0.874168C21.2982 -9.27304 19.4035 -16.3349 16.5263 -20.3116C13.6491 -24.3567 10.1754 -26.3793 6.10526 -26.3793C3.08772 -26.3793 0.666663 -25.2823 -1.1579 -23.0883C-2.91228 -20.8943 -4.21053 -18.2204 -5.05264 -15.0665C-5.82456 -11.9812 -6.21053 -9.10164 -6.21053 -6.42771C-6.21053 -3.27385 -5.22807 -1.0113 -3.26316 0.359947C-1.29825 1.66263 2.98246 2.31397 9.57895 2.31397C13.9298 2.31397 18.1404 1.83404 22.2105 0.874168Z" fill="#E05297"/>
<path d="M109.474 -34.8125C112.772 -27.4077 115.333 -19.5917 117.158 -11.3642C119.053 -3.20529 120 4.88506 120 12.9068C120 24.151 117.684 34.6411 113.053 44.3769C108.491 54.1127 101.474 62.5116 92 69.5735C82.5263 76.6354 70.421 81.7776 55.6842 85L44.2105 62.2716C61.2632 58.1579 73.8246 52.0901 81.8947 44.0684C90.0351 36.1151 94.1053 26.2765 94.1053 14.5523C94.1053 8.38173 93.193 1.69691 91.3684 -5.50212C89.614 -12.7012 87.3333 -19.5574 84.5263 -26.0708L109.474 -34.8125Z" fill="#E05297"/>
</svg>