<svg width="384" height="47" viewBox="0 0 384 47" fill="none" xmlns="http://www.w3.org/2000/svg">
<path d="M6.63999 46C5.39999 46 4.37999 45.88 3.57999 45.64C2.81999 45.36 2.19999 44.98 1.71999 44.5C1.27999 44.02 0.959989 43.44 0.759989 42.76C0.599989 42.04 0.519989 41.22 0.519989 40.3C0.519989 39.7 0.539989 38.86 0.579989 37.78C0.659989 36.66 0.779989 35.14 0.939989 33.22C1.09999 31.26 1.27999 28.8 1.47999 25.84C1.71999 22.84 1.99999 19.14 2.31999 14.74C2.35999 13.86 2.45999 13.34 2.61999 13.18C2.73999 13.06 3.05999 13 3.57999 13H5.91999C7.15999 13 8.15999 13.12 8.91999 13.36C9.71999 13.6 10.34 13.96 10.78 14.44C11.26 14.92 11.58 15.5 11.74 16.18C11.94 16.86 12.04 17.62 12.04 18.46C12.04 19.06 12 19.96 11.92 21.16C11.84 22.36 11.72 24 11.56 26.08C11.44 28.12 11.26 30.68 11.02 33.76C10.78 36.8 10.48 40.48 10.12 44.8C10.08 45.28 9.97999 45.6 9.81999 45.76C9.65999 45.92 9.31999 46 8.79999 46H6.63999ZM2.37999 5.92C2.37999 4.32 2.95999 3.06 4.11999 2.14C5.27999 1.22 6.83999 0.759998 8.79999 0.759998C10.52 0.759998 11.76 1.12 12.52 1.84C13.32 2.52 13.72 3.44 13.72 4.6C13.72 6.08 13.16 7.32 12.04 8.32C10.96 9.28 9.35999 9.76 7.23999 9.76C3.99999 9.76 2.37999 8.48 2.37999 5.92Z" fill="black"/>
<path d="M37.795 40.72C37.795 39.84 37.855 38.7 37.975 37.3C38.135 35.86 38.275 34.36 38.395 32.8C38.555 31.2 38.695 29.66 38.815 28.18C38.975 26.7 39.055 25.46 39.055 24.46C39.055 23.42 38.795 22.5 38.275 21.7C37.795 20.86 36.835 20.44 35.395 20.44C33.995 20.44 32.835 20.78 31.915 21.46C30.995 22.14 30.215 23.38 29.575 25.18C28.975 26.98 28.475 29.46 28.075 32.62C27.675 35.78 27.295 39.84 26.935 44.8C26.895 45.28 26.795 45.6 26.635 45.76C26.475 45.92 26.135 46 25.615 46H23.455C22.215 46 21.195 45.88 20.395 45.64C19.635 45.36 19.015 44.98 18.535 44.5C18.095 44.02 17.775 43.44 17.575 42.76C17.415 42.04 17.335 41.22 17.335 40.3C17.335 39.7 17.355 38.86 17.395 37.78C17.475 36.66 17.595 35.14 17.755 33.22C17.915 31.26 18.095 28.8 18.295 25.84C18.535 22.84 18.815 19.14 19.135 14.74C19.175 13.86 19.275 13.34 19.435 13.18C19.555 13.06 19.875 13 20.395 13H22.735C23.935 13 24.915 13.14 25.675 13.42C26.475 13.7 27.115 14.08 27.595 14.56C28.075 15 28.415 15.54 28.615 16.18C28.815 16.78 28.935 17.4 28.975 18.04C30.215 15.92 31.635 14.46 33.235 13.66C34.835 12.82 36.835 12.4 39.235 12.4C40.915 12.4 42.375 12.58 43.615 12.94C44.855 13.3 45.875 13.92 46.675 14.8C47.515 15.64 48.135 16.76 48.535 18.16C48.935 19.52 49.135 21.22 49.135 23.26C49.135 23.9 49.095 24.82 49.015 26.02C48.935 27.22 48.835 28.54 48.715 29.98C48.595 31.38 48.455 32.86 48.295 34.42C48.175 35.94 48.055 37.36 47.935 38.68C47.815 40 47.715 41.16 47.635 42.16C47.555 43.16 47.515 43.82 47.515 44.14C47.515 45.02 47.415 45.56 47.215 45.76C47.015 45.92 46.575 46 45.895 46H43.975C42.695 46 41.655 45.88 40.855 45.64C40.055 45.4 39.435 45.06 38.995 44.62C38.555 44.18 38.235 43.64 38.035 43C37.875 42.32 37.795 41.56 37.795 40.72Z" fill="black"/>
<path d="M68.4634 12.4C71.8634 12.4 74.3634 13.08 75.9634 14.44C77.5634 15.76 78.3634 17.46 78.3634 19.54C78.3634 21.3 77.8034 22.64 76.6834 23.56C75.6034 24.48 74.0234 24.94 71.9434 24.94C71.3834 24.94 71.0034 24.88 70.8034 24.76C70.6034 24.64 70.5034 24.42 70.5034 24.1C70.5034 23.74 70.4634 23.34 70.3834 22.9C70.3434 22.42 70.2034 21.98 69.9634 21.58C69.7634 21.14 69.4234 20.78 68.9434 20.5C68.5034 20.22 67.8634 20.08 67.0234 20.08C65.9034 20.08 65.0034 20.36 64.3234 20.92C63.6434 21.44 63.3034 22.1 63.3034 22.9C63.3034 23.74 63.6434 24.42 64.3234 24.94C65.0434 25.42 65.9234 25.88 66.9634 26.32C68.0434 26.76 69.2034 27.22 70.4434 27.7C71.6834 28.14 72.8234 28.74 73.8634 29.5C74.9434 30.26 75.8234 31.22 76.5034 32.38C77.2234 33.5 77.5834 34.96 77.5834 36.76C77.5834 39.64 76.5634 42 74.5234 43.84C72.4834 45.68 69.4234 46.6 65.3434 46.6C64.2234 46.6 62.9234 46.5 61.4434 46.3C60.0034 46.14 58.6234 45.88 57.3034 45.52C55.9834 45.12 54.8634 44.6 53.9434 43.96C53.0634 43.32 52.6234 42.52 52.6234 41.56C52.6234 41.2 52.6834 40.76 52.8034 40.24C52.9634 39.72 53.1834 39.22 53.4634 38.74C53.7834 38.26 54.1434 37.86 54.5434 37.54C54.9834 37.18 55.5034 37 56.1034 37C56.5834 37 57.0234 37.12 57.4234 37.36C57.8234 37.6 58.2834 37.86 58.8034 38.14C59.3634 38.38 60.0434 38.62 60.8434 38.86C61.6434 39.1 62.7034 39.22 64.0234 39.22C65.0234 39.22 65.9034 39.1 66.6634 38.86C67.4634 38.62 67.8634 38.08 67.8634 37.24C67.8634 36.48 67.5434 35.88 66.9034 35.44C66.2634 34.96 65.4434 34.52 64.4434 34.12C63.4834 33.72 62.4234 33.3 61.2634 32.86C60.1434 32.38 59.0834 31.76 58.0834 31C57.1234 30.24 56.3234 29.28 55.6834 28.12C55.0434 26.92 54.7234 25.38 54.7234 23.5C54.7234 21.46 55.1234 19.74 55.9234 18.34C56.7634 16.9 57.8234 15.74 59.1034 14.86C60.4234 13.98 61.9034 13.36 63.5434 13C65.1834 12.6 66.8234 12.4 68.4634 12.4Z" fill="black"/>
<path d="M96.527 46.6C94.767 46.6 93.007 46.38 91.247 45.94C89.527 45.5 87.967 44.74 86.567 43.66C85.207 42.58 84.087 41.14 83.207 39.34C82.327 37.54 81.887 35.28 81.887 32.56C81.887 31.56 81.967 30.36 82.127 28.96C82.287 27.56 82.587 26.12 83.027 24.64C83.507 23.16 84.147 21.7 84.947 20.26C85.787 18.78 86.867 17.46 88.187 16.3C89.507 15.14 91.107 14.2 92.987 13.48C94.867 12.76 97.107 12.4 99.707 12.4C101.787 12.4 103.547 12.64 104.987 13.12C106.427 13.6 107.587 14.26 108.467 15.1C109.347 15.9 109.987 16.84 110.387 17.92C110.787 19 110.987 20.16 110.987 21.4C110.987 23.24 110.607 24.8 109.847 26.08C109.127 27.36 108.167 28.44 106.967 29.32C105.807 30.16 104.507 30.82 103.067 31.3C101.627 31.78 100.207 32.16 98.807 32.44C97.407 32.68 96.107 32.84 94.907 32.92C93.747 32.96 92.847 32.98 92.207 32.98C92.207 33.74 92.307 34.5 92.507 35.26C92.747 35.98 93.087 36.62 93.527 37.18C93.967 37.74 94.547 38.2 95.267 38.56C95.987 38.92 96.867 39.1 97.907 39.1C98.947 39.1 99.747 38.94 100.307 38.62C100.907 38.26 101.387 37.88 101.747 37.48C102.107 37.04 102.407 36.66 102.647 36.34C102.927 35.98 103.287 35.8 103.727 35.8C103.927 35.8 104.267 35.86 104.747 35.98C105.267 36.06 105.787 36.26 106.307 36.58C106.827 36.9 107.287 37.34 107.687 37.9C108.087 38.46 108.287 39.18 108.287 40.06C108.287 41.22 107.927 42.22 107.207 43.06C106.487 43.9 105.547 44.58 104.387 45.1C103.267 45.62 102.007 46 100.607 46.24C99.207 46.48 97.847 46.6 96.527 46.6ZM97.667 20.38C96.787 20.38 96.027 20.64 95.387 21.16C94.787 21.64 94.267 22.26 93.827 23.02C93.427 23.78 93.107 24.62 92.867 25.54C92.667 26.46 92.507 27.34 92.387 28.18C94.867 28.14 96.867 27.72 98.387 26.92C99.947 26.12 100.727 24.98 100.727 23.5C100.727 22.7 100.467 21.98 99.947 21.34C99.467 20.7 98.707 20.38 97.667 20.38Z" fill="black"/>
<path d="M133.981 27.34C133.741 27.34 133.461 27.34 133.141 27.34C132.861 27.3 132.581 27.26 132.301 27.22C132.021 27.14 131.781 27.06 131.581 26.98C131.381 26.86 131.281 26.72 131.281 26.56C131.281 26.04 131.301 25.56 131.341 25.12C131.381 24.68 131.401 24.22 131.401 23.74C131.401 22.86 131.281 22.14 131.041 21.58C130.801 21.02 130.321 20.74 129.601 20.74C128.481 20.74 127.541 21.48 126.781 22.96C126.061 24.4 125.601 26.58 125.401 29.5C125.321 30.78 125.201 32.24 125.041 33.88C124.921 35.48 124.801 37.04 124.681 38.56C124.561 40.04 124.461 41.36 124.381 42.52C124.301 43.68 124.261 44.44 124.261 44.8C124.261 45.2 124.121 45.5 123.841 45.7C123.561 45.9 123.261 46 122.941 46H120.781C119.541 46 118.521 45.88 117.721 45.64C116.961 45.36 116.341 44.98 115.861 44.5C115.421 44.02 115.101 43.44 114.901 42.76C114.741 42.04 114.661 41.22 114.661 40.3C114.661 39.7 114.681 38.86 114.721 37.78C114.801 36.66 114.921 35.14 115.081 33.22C115.241 31.26 115.421 28.8 115.621 25.84C115.861 22.84 116.141 19.14 116.461 14.74C116.541 13.58 116.961 13 117.721 13H120.061C121.181 13 122.121 13.12 122.881 13.36C123.641 13.6 124.261 13.94 124.741 14.38C125.221 14.78 125.561 15.26 125.761 15.82C126.001 16.38 126.161 16.96 126.241 17.56C126.721 16.64 127.281 15.86 127.921 15.22C128.601 14.54 129.301 14 130.021 13.6C130.741 13.16 131.481 12.86 132.241 12.7C133.001 12.5 133.701 12.4 134.341 12.4C135.101 12.4 135.861 12.54 136.621 12.82C137.421 13.1 138.141 13.52 138.781 14.08C139.421 14.64 139.921 15.36 140.281 16.24C140.681 17.12 140.881 18.16 140.881 19.36C140.881 20.44 140.721 21.46 140.401 22.42C140.081 23.38 139.621 24.24 139.021 25C138.421 25.72 137.681 26.3 136.801 26.74C135.961 27.14 135.021 27.34 133.981 27.34Z" fill="black"/>
<path d="M156.212 21.1C156.092 22.62 155.952 24.12 155.792 25.6C155.672 27.08 155.552 28.48 155.432 29.8C155.312 31.12 155.212 32.3 155.132 33.34C155.092 34.38 155.072 35.18 155.072 35.74C155.072 36.78 155.192 37.48 155.432 37.84C155.672 38.16 156.072 38.32 156.632 38.32C157.072 38.32 157.452 38.24 157.772 38.08C158.092 37.92 158.392 37.74 158.672 37.54C158.952 37.34 159.192 37.16 159.392 37C159.632 36.84 159.892 36.76 160.172 36.76C160.452 36.76 160.712 36.92 160.952 37.24C161.192 37.56 161.312 38.3 161.312 39.46C161.312 41.66 160.712 43.4 159.512 44.68C158.312 45.96 156.252 46.6 153.332 46.6C150.452 46.6 148.312 45.94 146.912 44.62C145.552 43.26 144.872 41.2 144.872 38.44C144.872 37.84 144.892 37.14 144.932 36.34C145.012 35.5 145.112 34.42 145.232 33.1C145.352 31.78 145.492 30.16 145.652 28.24C145.852 26.32 146.052 23.94 146.252 21.1H143.072C142.752 21.1 142.552 21.04 142.472 20.92C142.432 20.76 142.412 20.54 142.412 20.26L142.592 17.2C142.632 16.68 142.692 16.18 142.772 15.7C142.892 15.18 143.092 14.72 143.372 14.32C143.692 13.92 144.132 13.6 144.692 13.36C145.252 13.12 145.992 13 146.912 13C147.192 12.28 147.512 11.42 147.872 10.42C148.232 9.42 148.592 8.46 148.952 7.54C149.312 6.58 149.652 5.78 149.972 5.14C150.332 4.5 150.652 4.18 150.932 4.18H152.672C154.352 4.18 155.512 4.7 156.152 5.74C156.792 6.78 157.112 8.02 157.112 9.46C157.112 10.26 157.052 11.44 156.932 13H163.232C163.872 13 164.192 13.28 164.192 13.84L163.952 17.08C163.872 18.28 163.532 19.26 162.932 20.02C162.372 20.74 161.192 21.1 159.392 21.1H156.212Z" fill="black"/>
<path d="M173.456 46C172.216 46 171.196 45.88 170.396 45.64C169.636 45.36 169.016 44.98 168.536 44.5C168.096 44.02 167.776 43.44 167.576 42.76C167.416 42.04 167.336 41.22 167.336 40.3C167.336 39.7 167.356 38.86 167.396 37.78C167.476 36.66 167.596 35.14 167.756 33.22C167.916 31.26 168.096 28.8 168.296 25.84C168.536 22.84 168.816 19.14 169.136 14.74C169.176 13.86 169.276 13.34 169.436 13.18C169.556 13.06 169.876 13 170.396 13H172.736C173.976 13 174.976 13.12 175.736 13.36C176.536 13.6 177.156 13.96 177.596 14.44C178.076 14.92 178.396 15.5 178.556 16.18C178.756 16.86 178.856 17.62 178.856 18.46C178.856 19.06 178.816 19.96 178.736 21.16C178.656 22.36 178.536 24 178.376 26.08C178.256 28.12 178.076 30.68 177.836 33.76C177.596 36.8 177.296 40.48 176.936 44.8C176.896 45.28 176.796 45.6 176.636 45.76C176.476 45.92 176.136 46 175.616 46H173.456ZM169.196 5.92C169.196 4.32 169.776 3.06 170.936 2.14C172.096 1.22 173.656 0.759998 175.616 0.759998C177.336 0.759998 178.576 1.12 179.336 1.84C180.136 2.52 180.536 3.44 180.536 4.6C180.536 6.08 179.976 7.32 178.856 8.32C177.776 9.28 176.176 9.76 174.056 9.76C170.816 9.76 169.196 8.48 169.196 5.92Z" fill="black"/>
<path d="M197.591 46.6C194.831 46.6 192.531 46.22 190.691 45.46C188.891 44.66 187.451 43.58 186.371 42.22C185.291 40.86 184.531 39.28 184.091 37.48C183.651 35.64 183.431 33.68 183.431 31.6C183.431 29.2 183.711 26.86 184.271 24.58C184.871 22.26 185.871 20.2 187.271 18.4C188.671 16.6 190.511 15.16 192.791 14.08C195.111 12.96 197.991 12.4 201.431 12.4C206.471 12.4 210.071 13.64 212.231 16.12C214.431 18.56 215.531 22 215.531 26.44C215.531 27.68 215.431 29.06 215.231 30.58C215.071 32.06 214.731 33.54 214.211 35.02C213.731 36.5 213.051 37.94 212.171 39.34C211.331 40.74 210.251 41.98 208.931 43.06C207.611 44.14 206.011 45 204.131 45.64C202.291 46.28 200.111 46.6 197.591 46.6ZM200.411 20.38C198.891 20.38 197.671 20.78 196.751 21.58C195.871 22.34 195.191 23.28 194.711 24.4C194.271 25.48 193.971 26.64 193.811 27.88C193.691 29.08 193.631 30.1 193.631 30.94C193.631 33.58 194.051 35.52 194.891 36.76C195.731 38 196.931 38.62 198.491 38.62C199.891 38.62 201.031 38.18 201.911 37.3C202.831 36.42 203.531 35.36 204.011 34.12C204.531 32.88 204.871 31.58 205.031 30.22C205.231 28.86 205.331 27.72 205.331 26.8C205.331 24.8 204.951 23.24 204.191 22.12C203.471 20.96 202.211 20.38 200.411 20.38Z" fill="black"/>
<path d="M240.471 40.72C240.471 39.84 240.531 38.7 240.651 37.3C240.811 35.86 240.951 34.36 241.071 32.8C241.231 31.2 241.371 29.66 241.491 28.18C241.651 26.7 241.731 25.46 241.731 24.46C241.731 23.42 241.471 22.5 240.951 21.7C240.471 20.86 239.511 20.44 238.071 20.44C236.671 20.44 235.511 20.78 234.591 21.46C233.671 22.14 232.891 23.38 232.251 25.18C231.651 26.98 231.151 29.46 230.751 32.62C230.351 35.78 229.971 39.84 229.611 44.8C229.571 45.28 229.471 45.6 229.311 45.76C229.151 45.92 228.811 46 228.291 46H226.131C224.891 46 223.871 45.88 223.071 45.64C222.311 45.36 221.691 44.98 221.211 44.5C220.771 44.02 220.451 43.44 220.251 42.76C220.091 42.04 220.011 41.22 220.011 40.3C220.011 39.7 220.031 38.86 220.071 37.78C220.151 36.66 220.271 35.14 220.431 33.22C220.591 31.26 220.771 28.8 220.971 25.84C221.211 22.84 221.491 19.14 221.811 14.74C221.851 13.86 221.951 13.34 222.111 13.18C222.231 13.06 222.551 13 223.071 13H225.411C226.611 13 227.591 13.14 228.351 13.42C229.151 13.7 229.791 14.08 230.271 14.56C230.751 15 231.091 15.54 231.291 16.18C231.491 16.78 231.611 17.4 231.651 18.04C232.891 15.92 234.311 14.46 235.911 13.66C237.511 12.82 239.511 12.4 241.911 12.4C243.591 12.4 245.051 12.58 246.291 12.94C247.531 13.3 248.551 13.92 249.351 14.8C250.191 15.64 250.811 16.76 251.211 18.16C251.611 19.52 251.811 21.22 251.811 23.26C251.811 23.9 251.771 24.82 251.691 26.02C251.611 27.22 251.511 28.54 251.391 29.98C251.271 31.38 251.131 32.86 250.971 34.42C250.851 35.94 250.731 37.36 250.611 38.68C250.491 40 250.391 41.16 250.311 42.16C250.231 43.16 250.191 43.82 250.191 44.14C250.191 45.02 250.091 45.56 249.891 45.76C249.691 45.92 249.251 46 248.571 46H246.651C245.371 46 244.331 45.88 243.531 45.64C242.731 45.4 242.111 45.06 241.671 44.62C241.231 44.18 240.911 43.64 240.711 43C240.551 42.32 240.471 41.56 240.471 40.72Z" fill="black"/>
<path d="M284.03 12.4C287.43 12.4 289.93 13.08 291.53 14.44C293.13 15.76 293.93 17.46 293.93 19.54C293.93 21.3 293.37 22.64 292.25 23.56C291.17 24.48 289.59 24.94 287.51 24.94C286.95 24.94 286.57 24.88 286.37 24.76C286.17 24.64 286.07 24.42 286.07 24.1C286.07 23.74 286.03 23.34 285.95 22.9C285.91 22.42 285.77 21.98 285.53 21.58C285.33 21.14 284.99 20.78 284.51 20.5C284.07 20.22 283.43 20.08 282.59 20.08C281.47 20.08 280.57 20.36 279.89 20.92C279.21 21.44 278.87 22.1 278.87 22.9C278.87 23.74 279.21 24.42 279.89 24.94C280.61 25.42 281.49 25.88 282.53 26.32C283.61 26.76 284.77 27.22 286.01 27.7C287.25 28.14 288.39 28.74 289.43 29.5C290.51 30.26 291.39 31.22 292.07 32.38C292.79 33.5 293.15 34.96 293.15 36.76C293.15 39.64 292.13 42 290.09 43.84C288.05 45.68 284.99 46.6 280.91 46.6C279.79 46.6 278.49 46.5 277.01 46.3C275.57 46.14 274.19 45.88 272.87 45.52C271.55 45.12 270.43 44.6 269.51 43.96C268.63 43.32 268.19 42.52 268.19 41.56C268.19 41.2 268.25 40.76 268.37 40.24C268.53 39.72 268.75 39.22 269.03 38.74C269.35 38.26 269.71 37.86 270.11 37.54C270.55 37.18 271.07 37 271.67 37C272.15 37 272.59 37.12 272.99 37.36C273.39 37.6 273.85 37.86 274.37 38.14C274.93 38.38 275.61 38.62 276.41 38.86C277.21 39.1 278.27 39.22 279.59 39.22C280.59 39.22 281.47 39.1 282.23 38.86C283.03 38.62 283.43 38.08 283.43 37.24C283.43 36.48 283.11 35.88 282.47 35.44C281.83 34.96 281.01 34.52 280.01 34.12C279.05 33.72 277.99 33.3 276.83 32.86C275.71 32.38 274.65 31.76 273.65 31C272.69 30.24 271.89 29.28 271.25 28.12C270.61 26.92 270.29 25.38 270.29 23.5C270.29 21.46 270.69 19.74 271.49 18.34C272.33 16.9 273.39 15.74 274.67 14.86C275.99 13.98 277.47 13.36 279.11 13C280.75 12.6 282.39 12.4 284.03 12.4Z" fill="black"/>
<path d="M311.673 46.6C308.913 46.6 306.613 46.22 304.773 45.46C302.973 44.66 301.533 43.58 300.453 42.22C299.373 40.86 298.613 39.28 298.173 37.48C297.733 35.64 297.513 33.68 297.513 31.6C297.513 29.2 297.793 26.86 298.353 24.58C298.953 22.26 299.953 20.2 301.353 18.4C302.753 16.6 304.593 15.16 306.873 14.08C309.193 12.96 312.073 12.4 315.513 12.4C320.553 12.4 324.153 13.64 326.313 16.12C328.513 18.56 329.613 22 329.613 26.44C329.613 27.68 329.513 29.06 329.313 30.58C329.153 32.06 328.813 33.54 328.293 35.02C327.813 36.5 327.133 37.94 326.253 39.34C325.413 40.74 324.333 41.98 323.013 43.06C321.693 44.14 320.093 45 318.213 45.64C316.373 46.28 314.193 46.6 311.673 46.6ZM314.493 20.38C312.973 20.38 311.753 20.78 310.833 21.58C309.953 22.34 309.273 23.28 308.793 24.4C308.353 25.48 308.053 26.64 307.893 27.88C307.773 29.08 307.713 30.1 307.713 30.94C307.713 33.58 308.133 35.52 308.973 36.76C309.813 38 311.013 38.62 312.573 38.62C313.973 38.62 315.113 38.18 315.993 37.3C316.913 36.42 317.613 35.36 318.093 34.12C318.613 32.88 318.953 31.58 319.113 30.22C319.313 28.86 319.413 27.72 319.413 26.8C319.413 24.8 319.033 23.24 318.273 22.12C317.553 20.96 316.293 20.38 314.493 20.38Z" fill="black"/>
<path d="M353.473 27.34C353.233 27.34 352.953 27.34 352.633 27.34C352.353 27.3 352.073 27.26 351.793 27.22C351.513 27.14 351.273 27.06 351.073 26.98C350.873 26.86 350.773 26.72 350.773 26.56C350.773 26.04 350.793 25.56 350.833 25.12C350.873 24.68 350.893 24.22 350.893 23.74C350.893 22.86 350.773 22.14 350.533 21.58C350.293 21.02 349.813 20.74 349.093 20.74C347.973 20.74 347.033 21.48 346.273 22.96C345.553 24.4 345.093 26.58 344.893 29.5C344.813 30.78 344.693 32.24 344.533 33.88C344.413 35.48 344.293 37.04 344.173 38.56C344.053 40.04 343.953 41.36 343.873 42.52C343.793 43.68 343.753 44.44 343.753 44.8C343.753 45.2 343.613 45.5 343.333 45.7C343.053 45.9 342.753 46 342.433 46H340.273C339.033 46 338.013 45.88 337.213 45.64C336.453 45.36 335.833 44.98 335.353 44.5C334.913 44.02 334.593 43.44 334.393 42.76C334.233 42.04 334.153 41.22 334.153 40.3C334.153 39.7 334.173 38.86 334.213 37.78C334.293 36.66 334.413 35.14 334.573 33.22C334.733 31.26 334.913 28.8 335.113 25.84C335.353 22.84 335.633 19.14 335.953 14.74C336.033 13.58 336.453 13 337.213 13H339.553C340.673 13 341.613 13.12 342.373 13.36C343.133 13.6 343.753 13.94 344.233 14.38C344.713 14.78 345.053 15.26 345.253 15.82C345.493 16.38 345.653 16.96 345.733 17.56C346.213 16.64 346.773 15.86 347.413 15.22C348.093 14.54 348.793 14 349.513 13.6C350.233 13.16 350.973 12.86 351.733 12.7C352.493 12.5 353.193 12.4 353.833 12.4C354.593 12.4 355.353 12.54 356.113 12.82C356.913 13.1 357.633 13.52 358.273 14.08C358.913 14.64 359.413 15.36 359.773 16.24C360.173 17.12 360.373 18.16 360.373 19.36C360.373 20.44 360.213 21.46 359.893 22.42C359.573 23.38 359.113 24.24 358.513 25C357.913 25.72 357.173 26.3 356.293 26.74C355.453 27.14 354.513 27.34 353.473 27.34Z" fill="black"/>
<path d="M375.704 21.1C375.584 22.62 375.444 24.12 375.284 25.6C375.164 27.08 375.044 28.48 374.924 29.8C374.804 31.12 374.704 32.3 374.624 33.34C374.584 34.38 374.564 35.18 374.564 35.74C374.564 36.78 374.684 37.48 374.924 37.84C375.164 38.16 375.564 38.32 376.124 38.32C376.564 38.32 376.944 38.24 377.264 38.08C377.584 37.92 377.884 37.74 378.164 37.54C378.444 37.34 378.684 37.16 378.884 37C379.124 36.84 379.384 36.76 379.664 36.76C379.944 36.76 380.204 36.92 380.444 37.24C380.684 37.56 380.804 38.3 380.804 39.46C380.804 41.66 380.204 43.4 379.004 44.68C377.804 45.96 375.744 46.6 372.824 46.6C369.944 46.6 367.804 45.94 366.404 44.62C365.044 43.26 364.364 41.2 364.364 38.44C364.364 37.84 364.384 37.14 364.424 36.34C364.504 35.5 364.604 34.42 364.724 33.1C364.844 31.78 364.984 30.16 365.144 28.24C365.344 26.32 365.544 23.94 365.744 21.1H362.564C362.244 21.1 362.044 21.04 361.964 20.92C361.924 20.76 361.904 20.54 361.904 20.26L362.084 17.2C362.124 16.68 362.184 16.18 362.264 15.7C362.384 15.18 362.584 14.72 362.864 14.32C363.184 13.92 363.624 13.6 364.184 13.36C364.744 13.12 365.484 13 366.404 13C366.684 12.28 367.004 11.42 367.364 10.42C367.724 9.42 368.084 8.46 368.444 7.54C368.804 6.58 369.144 5.78 369.464 5.14C369.824 4.5 370.144 4.18 370.424 4.18H372.164C373.844 4.18 375.004 4.7 375.644 5.74C376.284 6.78 376.604 8.02 376.604 9.46C376.604 10.26 376.544 11.44 376.424 13H382.724C383.364 13 383.684 13.28 383.684 13.84L383.444 17.08C383.364 18.28 383.024 19.26 382.424 20.02C381.864 20.74 380.684 21.1 378.884 21.1H375.704Z" fill="black"/>
</svg>
