<svg width="114" height="57" viewBox="0 0 114 57" fill="none" xmlns="http://www.w3.org/2000/svg">
<path d="M5.52 45V34.5302C6.32995 33.7401 7.12995 32.95 7.92 32.16C8.61681 31.4872 9.31362 30.8072 10.0104 30.12H10.98C11.22 30.92 11.48 31.66 11.76 32.34C12.04 32.98 12.4 33.64 12.84 34.32C13.32 35 13.92 35.8 14.64 36.72C15.2 37.4 15.8 38.16 16.44 39C17.08 39.8 17.68 40.56 18.24 41.28C18.84 42 19.36 42.64 19.8 43.2C20.24 43.76 20.54 44.14 20.7 44.34C20.9 44.58 21.1 44.76 21.3 44.88C21.54 44.96 21.84 45 22.2 45H28.2C26.36 42.76 24.56 40.58 22.8 38.46L17.52 31.98C16.1509 30.2607 14.7564 28.5413 13.3366 26.822C13.8511 26.3174 14.3655 25.8167 14.88 25.32C16.08 24.16 17.28 22.98 18.48 21.78L22.2 18.18L25.98 14.4C26.22 14.16 26.36 13.98 26.4 13.86C26.48 13.74 26.52 13.66 26.52 13.62C26.52 13.46 26.48 13.34 26.4 13.26C26.36 13.18 26.3 13.12 26.22 13.08C26.14 13 26.02 12.96 25.86 12.96L19.98 13.08C18.82 14.24 17.7 15.34 16.62 16.38L13.74 19.26C12.86 20.1 12.08 20.88 11.4 21.6C10.84 22.16 10.34 22.7 9.9 23.22C9.46 23.7 9.04 24.22 8.64 24.78C8.24 25.3 7.86 25.88 7.5 26.52C7.14 27.16 6.78 27.88 6.42 28.68H5.52V0.660004C5.52 0.5 5.48 0.380005 5.4 0.300003C5.36 0.220001 5.3 0.160004 5.22 0.119995C5.14 0.0399933 5.02 0 4.86 0H0V44.34C0 44.5 0.0199966 44.62 0.0599976 44.7L0.299995 44.94C0.419998 44.98 0.540001 45 0.659996 45H5.52Z" fill="#595959"/>
<path fill-rule="evenodd" clip-rule="evenodd" d="M52.6542 13.92C50.6942 12.92 48.5342 12.42 46.1742 12.42C44.2942 12.42 42.5342 12.7 40.8942 13.26C39.2542 13.82 37.8142 14.66 36.5742 15.78C35.3342 16.9 34.3542 18.32 33.6342 20.04C32.9542 21.76 32.6142 23.78 32.6142 26.1V32.34C32.6142 34.54 32.9542 36.48 33.6342 38.16C34.3142 39.8 35.2942 41.18 36.5742 42.3C37.8942 43.42 39.4742 44.26 41.3142 44.82C43.1942 45.38 45.2742 45.66 47.5542 45.66C49.2742 45.66 50.8742 45.52 52.3542 45.24C53.8742 45 55.1542 44.68 56.1942 44.28C57.2742 43.88 58.0142 43.48 58.4142 43.08C58.4942 43 58.5542 42.92 58.5942 42.84C58.6342 42.76 58.6542 42.68 58.6542 42.6V38.58H57.7542C56.7542 39.06 55.7742 39.46 54.8142 39.78C53.8542 40.1 52.8142 40.34 51.6942 40.5C50.6142 40.66 49.3142 40.74 47.7942 40.74C46.0742 40.74 44.5542 40.56 43.2342 40.2C41.9542 39.8 40.9142 39.2 40.1142 38.4C39.4742 37.72 38.9742 36.86 38.6142 35.82C38.2542 34.78 38.0742 33.62 38.0742 32.34V30.96H58.4742C58.6342 30.96 58.7542 30.94 58.8342 30.9C58.9142 30.82 58.9742 30.74 59.0142 30.66C59.0942 30.54 59.1342 30.42 59.1342 30.3V25.92C59.1342 22.84 58.5342 20.32 57.3342 18.36C56.1742 16.36 54.6142 14.88 52.6542 13.92ZM38.0742 27.06H53.7342V25.86C53.7342 24.3 53.5542 22.96 53.1942 21.84C52.8742 20.68 52.3542 19.74 51.6342 19.02C50.9942 18.42 50.2142 17.98 49.2942 17.7C48.3742 17.38 47.3342 17.22 46.1742 17.22C43.5742 17.22 41.5742 17.92 40.1742 19.32C38.7742 20.68 38.0742 22.92 38.0742 26.04V27.06Z" fill="#595959"/>
<path d="M95.7989 13.32C95.5989 13.16 95.3989 13.08 95.1989 13.08H90.4589C89.6989 15.6 88.8989 18.28 88.0589 21.12C87.2189 23.96 86.3789 26.76 85.5389 29.52C84.6989 32.28 83.8989 34.9 83.1389 37.38C82.8264 38.4565 82.5289 39.4765 82.2465 40.44H81.2189C80.9789 39.48 80.5989 38.32 80.0789 36.96C79.5989 35.6 79.0389 34.08 78.3989 32.4C77.7989 30.68 77.1189 28.84 76.3589 26.88C75.6389 24.88 74.8989 22.8 74.1389 20.64C73.3789 18.44 72.5989 16.16 71.7989 13.8C71.7189 13.52 71.5989 13.34 71.4389 13.26C71.2789 13.14 71.0189 13.08 70.6589 13.08H65.4989C66.2589 15.12 67.0589 17.3 67.8989 19.62L70.5389 26.46C71.4189 28.74 72.2389 30.88 72.9989 32.88C73.7989 34.88 74.4789 36.64 75.0389 38.16C75.6389 39.68 76.0789 40.8 76.3589 41.52C76.6789 42.28 76.9389 42.84 77.1389 43.2C77.3389 43.56 77.5589 43.78 77.7989 43.86C78.0389 43.94 78.3389 43.98 78.6989 43.98H81.2006L79.9589 48.06C79.5589 49.5 78.9189 50.52 78.0389 51.12C77.1989 51.76 76.0989 52.08 74.7389 52.08H69.0389V56.34C69.0389 56.58 69.0989 56.74 69.2189 56.82C69.3389 56.94 69.4989 57 69.6989 57H75.1589C76.9189 57 78.4189 56.72 79.6589 56.16C80.9389 55.64 81.9989 54.78 82.8389 53.58C83.7189 52.42 84.4189 50.9 84.9389 49.02C85.7789 46.26 86.6389 43.46 87.5189 40.62C88.3989 37.78 89.2989 34.9 90.2189 31.98C91.1389 29.06 92.0789 26.12 93.0389 23.16C93.9989 20.16 94.9589 17.12 95.9189 14.04C96.0389 13.72 95.9989 13.48 95.7989 13.32Z" fill="#595959"/>
<path d="M113.295 21.84V14.28C113.295 14.12 113.255 14 113.175 13.92C113.135 13.84 113.075 13.78 112.995 13.74C112.915 13.66 112.795 13.62 112.635 13.62H105.255V21.18C105.255 21.3 105.275 21.42 105.315 21.54L105.555 21.78C105.675 21.82 105.795 21.84 105.915 21.84H113.295Z" fill="#595959"/>
<path d="M113.295 45.42V37.86C113.295 37.7 113.255 37.58 113.175 37.5C113.135 37.42 113.075 37.36 112.995 37.32C112.915 37.24 112.795 37.2 112.635 37.2H105.255V44.76C105.255 44.88 105.275 44.98 105.315 45.06C105.395 45.18 105.475 45.26 105.555 45.3C105.675 45.38 105.795 45.42 105.915 45.42H113.295Z" fill="#595959"/>
</svg>
