<svg width="93" height="182" viewBox="0 0 93 182" fill="none" xmlns="http://www.w3.org/2000/svg">
<path d="M23.496 50.6008C26.4627 41.4786 32.6183 33.8901 39.7425 27.7346C32.2752 22.6084 24.8078 19.238 19.2981 17.1794C21.276 22.1644 22.4667 28.9052 19.843 36.5743C19.2981 38.1485 18.5514 39.8842 17.7643 41.7006C15.2416 47.513 12.1133 54.7381 12.0932 64.4659C12.073 71.4286 14.2325 77.0998 18.4707 81.338C21.2154 84.0626 24.5253 85.9395 27.8553 87.2312C26.8462 85.9799 25.8169 84.5268 24.8684 82.8517C21.4778 76.6962 18.4505 66.1208 23.496 50.6008V50.6008Z" fill="white"/>
<path d="M73.2043 82.549C77.2609 78.1897 79.0369 72.2966 78.492 65.031C77.8058 55.7069 75.4243 51.5293 72.9016 47.0892C71.5897 44.7885 70.2577 42.407 69.1679 39.3999C66.2819 31.2665 67.6946 23.5368 69.8339 17.8657C57.5027 23.3148 36.2309 35.0204 30.4386 52.8815C22.5677 77.12 37.1592 86.2019 37.7849 86.5652C37.8656 86.6056 37.9262 86.646 38.0069 86.7065C41.3773 89.0274 46.8062 90.3998 52.5177 90.3998C61.0346 90.3998 68.5826 87.534 73.2043 82.549ZM45.7568 23.0121C50.5399 19.5812 55.4643 16.7153 59.9447 14.4348L52.4168 7.75452C42.6891 10.4589 36.5336 13.244 32.9614 15.2017C36.9372 17.2401 41.2562 19.7628 45.5751 22.8708C45.6357 22.9112 45.6962 22.9516 45.7568 23.0121V23.0121Z" fill="white"/>
<path d="M91.5497 125.658C90.9645 124.608 89.8948 123.902 88.6839 123.801C85.1521 123.478 81.7615 123.317 78.6333 123.317C65.6764 123.317 56.1102 126.061 50.0959 131.49V97.6653C50.9032 97.7057 51.7105 97.7461 52.5178 97.7461C63.0528 97.7461 72.5585 94.0326 78.5727 87.5541C83.9815 81.7216 86.4841 73.7497 85.7979 64.5063C84.9906 53.5273 81.9431 48.1993 79.2791 43.4968C78.0682 41.3777 76.938 39.3797 76.0903 36.9579C71.7916 24.8689 80.5506 13.2037 80.6313 13.0826C81.6202 11.8111 81.6606 10.0553 80.7322 8.74345C79.8038 7.43162 78.1489 6.86652 76.6151 7.35089C76.1105 7.51234 72.397 8.72326 67.1094 11.024L55.7671 0.953194C54.8387 0.145914 53.5874 -0.156816 52.3967 0.145914C35.5043 4.60614 27.7141 9.47 24.9693 11.5286C24.1621 11.1855 16.7351 8.52144 15.0398 8.03708C11.73 7.08852 10.9429 6.84634 9.57048 7.57289C8.54119 8.09762 7.83482 9.06636 7.633 10.1965C7.43118 11.3267 7.77428 12.4771 8.56138 13.3248C8.6421 13.4055 16.8965 22.4672 12.8803 34.2131C12.4363 35.525 11.7703 37.0386 11.0034 38.7944C8.35956 44.8894 4.74698 53.2044 4.7268 64.4659C4.70661 73.4671 7.57246 80.8941 13.2638 86.545C22.5071 95.748 36.0089 97.2617 42.7295 97.403V120.229C36.7758 114.295 26.927 111.288 13.3849 111.288C10.2567 111.288 6.86609 111.45 3.33424 111.773C2.12332 111.873 1.05367 112.58 0.468394 113.629C-0.116884 114.679 -0.157248 115.95 0.367484 117.04C10.0952 136.839 21.0944 146.869 33.0623 146.889C36.9978 146.889 40.2875 145.739 42.7295 144.467V177.768C42.7295 179.786 44.3642 181.441 46.4026 181.441C48.4208 181.441 50.0757 179.806 50.0757 177.768V156.879C52.4169 157.989 55.424 158.898 58.9356 158.898C70.8834 158.898 81.8826 148.867 91.6305 129.048C92.1754 127.979 92.1552 126.707 91.5497 125.658Z" fill="#EAB1CC"/>
<path d="M41.4982 136.637C40.1056 137.686 37.0783 139.563 33.1024 139.563C25.1911 139.563 17.1183 132.378 9.55005 118.715C10.8821 118.655 12.1737 118.635 13.425 118.635C25.7764 118.635 34.495 121.399 38.6727 126.627C41.7 130.441 41.7 134.699 41.4982 136.637V136.637Z" fill="#EA86B6"/>
<path d="M52.4169 7.7345L59.9448 14.4147C55.4644 16.6953 50.54 19.5611 45.7568 22.9921C45.6963 22.9517 45.6357 22.8912 45.5752 22.8508C41.2562 19.7428 36.9171 17.22 32.9614 15.1817C36.5336 13.224 42.6892 10.4591 52.4169 7.7345V7.7345ZM18.4909 81.3584C14.2325 77.1404 12.0932 71.4491 12.1134 64.4863C12.1336 54.7586 15.2618 47.5334 17.7846 41.721C18.5717 39.8844 19.3184 38.169 19.8633 36.5948C22.487 28.9256 21.2962 22.1646 19.3184 17.1999C24.8281 19.2584 32.2752 22.6288 39.7628 27.755C32.6385 33.9105 26.483 41.5192 23.5163 50.6212C18.4708 66.121 21.4981 76.7166 24.929 82.8721C25.8775 84.5674 26.8866 86.0205 27.9159 87.2516C24.5254 85.9397 21.2155 84.0628 18.4909 81.3584V81.3584Z" fill="white"/>
<path d="M38.0269 86.7064C37.9462 86.6458 37.8856 86.6257 37.8049 86.5651C37.1793 86.1817 22.5877 77.0998 30.4587 52.8814C36.2711 35.0203 57.5429 23.3147 69.8539 17.8656C67.7146 23.5367 66.2817 31.2463 69.1879 39.3998C70.2576 42.4271 71.6098 44.7884 72.9216 47.0891C75.4443 51.509 77.8056 55.7068 78.512 65.0309C79.0569 72.2964 77.2809 78.1896 73.2243 82.5489C68.5825 87.5339 61.0546 90.3997 52.5378 90.3997C46.8263 90.3997 41.3973 89.0071 38.0269 86.7064Z" fill="white"/>
<path d="M58.9557 151.571C54.9799 151.571 51.9324 149.694 50.56 148.645C50.3582 146.687 50.3582 142.429 53.4057 138.634C57.5631 133.407 66.302 130.642 78.6533 130.642C79.9046 130.642 81.1963 130.663 82.5283 130.723C74.96 144.386 66.867 151.571 58.9557 151.571Z" fill="#EA86B6"/>
</svg>
