<svg width="185" height="105" viewBox="0 0 185 105" fill="none" xmlns="http://www.w3.org/2000/svg">
<path d="M174.152 45.6499L92.108 89.625L10.4718 46.5564C6.98312 44.7676 2.67585 46.0915 0.874962 49.5005C-0.0459146 51.2012 -0.242372 53.1381 0.321373 54.9542C0.881425 56.7581 2.12596 58.2323 3.82643 59.1054L88.7714 103.962C89.8001 104.523 90.9551 104.819 92.1114 104.819C93.2668 104.819 94.4216 104.523 95.445 103.966L180.907 58.2693C184.383 56.3922 185.678 52.1463 183.846 48.5866C181.967 45.1157 177.715 43.8229 174.152 45.6499V45.6499Z" fill="#483D3D"/>
<path d="M3.79501 59.0608L88.746 103.908C89.7749 104.468 90.9299 104.764 92.0857 104.764C93.2405 104.764 94.395 104.468 95.419 103.911L180.875 58.2302C183.18 56.9841 184.67 54.525 184.67 51.9658C184.67 49.3571 183.175 46.8953 180.867 45.6965L95.9242 0.854939C93.8333 -0.284325 91.3362 -0.284556 89.2511 0.851707L3.79477 46.5317C1.48947 47.7788 0 50.2378 0 52.7964C0 55.3559 1.4897 57.8149 3.79501 59.0608ZM22.3446 52.7091L92.5874 15.1866L162.326 51.9715L92.083 89.5751L22.3446 52.7091Z" fill="#483D3D"/>
</svg>
